<?xml version="1.0" standalone="no"?>
<!DOCTYPE svg PUBLIC "-//W3C//DTD SVG 20010904//EN"
 "http://www.w3.org/TR/2001/REC-SVG-20010904/DTD/svg10.dtd">
<svg version="1.0" xmlns="http://www.w3.org/2000/svg"
 width="317.000000pt" height="317.000000pt" viewBox="0 0 317.000000 317.000000"
 preserveAspectRatio="xMidYMid meet">

<g transform="translate(0.000000,317.000000) scale(0.100000,-0.100000)"
fill="#000000" stroke="none">
<path d="M1147 2918 c-8 -13 -38 -68 -67 -123 -29 -55 -67 -127 -85 -160 -18
-33 -50 -94 -73 -135 -22 -41 -70 -131 -107 -200 -37 -69 -97 -179 -132 -245
l-65 -121 -67 -18 c-163 -44 -202 -58 -232 -83 -38 -33 -68 -95 -69 -143 0
-53 38 -120 88 -153 23 -16 42 -32 42 -37 0 -4 -52 -114 -116 -244 l-115 -236
92 -173 c51 -94 102 -190 114 -212 45 -82 120 -223 161 -300 l43 -80 529 -5
529 -5 77 -70 c98 -90 145 -115 213 -115 101 0 178 58 204 152 l10 38 321 2
321 3 54 105 c30 58 118 230 195 382 l140 277 -168 328 c-93 180 -202 394
-243 475 l-76 147 34 128 c19 70 36 144 39 164 7 66 -53 151 -130 183 -45 19
-83 20 -145 4 -54 -13 -46 -21 -127 117 -29 50 -90 154 -136 233 l-83 142
-478 0 -479 0 -13 -22z m907 -263 c60 -112 122 -227 173 -317 23 -43 43 -82
43 -87 0 -5 3 -11 8 -13 4 -1 14 -16 23 -33 19 -37 33 -36 131 10 42 19 78 35
81 35 5 0 -2 -34 -28 -125 -9 -33 -21 -80 -26 -105 -6 -25 -14 -52 -19 -61 -4
-9 -11 -37 -15 -63 -4 -25 -11 -49 -16 -52 -5 -3 -9 -14 -9 -25 0 -11 -7 -44
-16 -72 -8 -29 -19 -68 -24 -87 -31 -119 -42 -148 -59 -143 -48 16 -198 75
-213 83 -10 6 -23 10 -29 10 -6 0 -25 6 -42 14 -67 31 -124 54 -172 71 -27 10
-54 22 -59 27 -6 4 -17 8 -25 8 -9 0 -28 6 -43 14 -14 8 -42 19 -62 26 -31 10
-34 13 -22 26 8 8 18 14 23 14 4 1 26 9 48 20 22 11 46 19 53 20 6 0 12 5 12
10 0 6 7 10 15 10 23 0 18 36 -14 93 -16 29 -46 84 -66 122 -21 39 -43 77 -50
85 -7 8 -38 65 -70 125 -32 61 -61 115 -65 120 -4 6 -33 60 -65 120 -32 61
-68 129 -81 153 -13 23 -24 45 -24 47 0 3 149 4 331 3 l331 -3 42 -80z m-864
-800 c0 -8 6 -34 14 -57 7 -24 28 -90 46 -148 17 -58 36 -113 41 -122 5 -10 9
-24 9 -32 0 -17 58 -205 71 -228 16 -30 12 -50 -8 -38 -47 26 -167 80 -177 80
-6 0 -23 -24 -37 -53 -49 -100 -94 -182 -101 -185 -5 -2 -8 -9 -8 -16 0 -16
-69 -148 -182 -349 -21 -38 -38 -71 -38 -73 0 -2 -23 -45 -51 -94 -39 -71 -55
-90 -72 -90 -25 0 -26 2 -87 115 -89 165 -103 191 -133 245 -17 30 -42 78 -56
105 -14 28 -29 52 -32 55 -20 14 -20 61 -1 92 11 18 41 74 67 123 26 50 61
115 78 145 16 30 50 93 74 140 25 47 49 89 54 95 12 13 11 45 -2 45 -10 0 -68
24 -143 60 l-39 19 29 6 c16 3 36 10 44 14 9 5 36 12 60 16 25 4 50 11 55 15
6 4 32 11 59 15 27 3 56 11 65 15 9 5 36 14 61 19 25 6 72 17 105 26 33 9 83
21 110 27 28 6 54 15 60 19 16 15 65 11 65 -6z m715 -823 l6 -23 509 7 c444 6
510 5 510 -7 0 -8 -4 -19 -9 -25 -8 -8 -63 -109 -127 -234 -16 -30 -31 -57
-34 -60 -3 -3 -21 -36 -40 -75 -19 -38 -38 -72 -41 -75 -3 -3 -14 -24 -25 -47
l-19 -42 -362 -1 -363 0 -5 -22 c-3 -13 -6 -53 -7 -90 l-3 -67 -50 46 c-54 50
-251 233 -294 273 -15 14 -54 51 -88 82 l-61 57 121 113 c66 62 154 145 196
184 42 39 99 92 126 117 l50 46 3 -67 c1 -37 4 -77 7 -90z"/>
</g>
</svg>
